HIERARCHY
ROOT Hips
{
  OFFSET -11.2269 106.682 4.10954
  CHANNELS 6 Xposition Yposition Zposition Zrotation Xrotation Yrotation
  JOINT ToSpine
  {
    OFFSET -2.69724 7.43032 -0.144315
    CHANNELS 3 Zrotation Xrotation Yrotation
    JOINT Spine
    {
      OFFSET -0.0310711 10.7595 1.96963
      CHANNELS 3 Zrotation Xrotation Yrotation
      JOINT Spine1
      {
        OFFSET 19.9056 3.91189 0.764692
        CHANNELS 3 Zrotation Xrotation Yrotation
        JOINT Neck
        {
          OFFSET 25.9749 7.03908 -0.130764
          CHANNELS 3 Zrotation Xrotation Yrotation
          JOINT Head
          {
            OFFSET 9.52751 0.295786 -0.907742
            CHANNELS 3 Zrotation Xrotation Yrotation
            End Site
            {
              OFFSET 16.4037 0.713936 2.7358
            }
          }
        }
        JOINT LeftShoulder
        {
          OFFSET 17.7449 4.33886 11.7777
          CHANNELS 3 Zrotation Xrotation Yrotation
          JOINT LeftArm
          {
            OFFSET 0.911315 1.27913 9.80584
            CHANNELS 3 Zrotation Xrotation Yrotation
            JOINT LeftForeArm
            {
              OFFSET 28.6126 1.18197 -3.53199
              CHANNELS 3 Zrotation Xrotation Yrotation
              JOINT LeftHand
              {
                OFFSET 27.5088 0.0218783 0.327423
                CHANNELS 3 Zrotation Xrotation Yrotation
                End Site
                {
                  OFFSET 18.6038 -0.000155887 0.382096
                }
              }
            }
          }
        }
        JOINT RightShoulder
        {
          OFFSET 17.1009 2.89543 -12.2328
          CHANNELS 3 Zrotation Xrotation Yrotation
          JOINT RightArm
          {
            OFFSET 1.4228 0.178766 -10.211
            CHANNELS 3 Zrotation Xrotation Yrotation
            JOINT RightForeArm
            {
              OFFSET 28.733 1.87905 2.64907
              CHANNELS 3 Zrotation Xrotation Yrotation
              JOINT RightHand
              {
                OFFSET 27.4588 0.290562 -0.101845
                CHANNELS 3 Zrotation Xrotation Yrotation
                End Site
                {
                  OFFSET 17.8396 -0.255518 -0.000602873
                }
              }
            }
          }
        }
      }
    }
  }
  JOINT LeftUpLeg
  {
    OFFSET -5.61296 -2.22332 -10.2353
    CHANNELS 3 Zrotation Xrotation Yrotation
    JOINT LeftLeg
    {
      OFFSET 2.56703 -44.7417 -7.93097
      CHANNELS 3 Zrotation Xrotation Yrotation
      JOINT LeftFoot
      {
        OFFSET 3.16933 -46.5642 -3.96578
        CHANNELS 3 Zrotation Xrotation Yrotation
        JOINT LeftToeBase
        {
          OFFSET 0.346054 -6.02161 12.8035
          CHANNELS 3 Zrotation Xrotation Yrotation
          End Site
          {
            OFFSET 0.134235 -1.35082 5.13018
          }
        }
      }
    }
  }
  JOINT RightUpLeg
  {
    OFFSET -5.7928 -1.72406 10.6446
    CHANNELS 3 Zrotation Xrotation Yrotation
    JOINT RightLeg
    {
      OFFSET -2.57161 -44.7178 -7.85259
      CHANNELS 3 Zrotation Xrotation Yrotation
      JOINT RightFoot
      {
        OFFSET -3.10148 -46.5936 -4.03391
        CHANNELS 3 Zrotation Xrotation Yrotation
        JOINT RightToeBase
        {
          OFFSET -0.0828122 -6.13587 12.8035
          CHANNELS 3 Zrotation Xrotation Yrotation
          End Site
          {
            OFFSET -0.131328 -1.35082 5.13018
          }
        }
      }
    }
  }
}
MOTION
Frames:	6
Frame Time:	0.0333333
-9.76269 92.0545 -9.66563 6.71288 -57.9558 -80.6321 -70.1915 0 88.8779 161.787 36.1201 -73.3356 6.15607 21.9889 -2.47983 -162.311 26.6727 -173.134 -174.738 66.6717 -142.496 -0.593715 -21.5417 -24.5623 -99.433 37.5823 -162.843 -8.32475 -1.98251 7.66179 -5.25807 0.579005 -11.4485 0.385925 7.74334 8.81766 -98.2648 -28.0354 160.933 -11.1915 20.4837 1.3099 10.0863 0.206992 2.1453 -5.48923 -0.770002 88.9096 -6.32426 68.4564 5.09469 4.93845 1.63004 -0.66019 -15.5415 -36.4569 0.0205213 -7.46099 -9.61922 75.5425 9.48234 70.6277 1.93256 -5.67321 -3.70394 0.939534 -5.57869 -24.1714 -11.6839 
-9.82847 93.281 -9.24944 6.29832 -58.0547 -80.8427 -70.1915 0 88.8779 160.568 39.317 -72.0339 6.149 22.0459 -2.15003 -164.966 26.3815 -171.83 -177.862 66.4206 -140.409 -0.608437 -20.4398 -26.3444 -97.8722 36.8017 -159.667 -9.74816 -1.83532 6.67689 -5.95992 0.63429 -10.9398 0.175679 7.64422 11.7273 -94.6357 -25.4306 158.893 -12.4831 20.4123 5.38949 9.66568 0.24472 2.67436 -7.31504 -0.0940024 89.3732 -5.54472 65.9986 3.78187 5.24608 1.34907 -0.709374 -14.6166 -34.7816 0.574348 -9.38257 -8.30619 75.6876 7.66426 67.6478 2.83883 -5.90201 -2.98755 0.945936 -5.52767 -24.0616 -11.5099 
-9.77715 94.4624 -8.75204 6.71831 -58.0093 -79.8347 -70.1915 0 88.8779 159.08 42.5428 -69.3536 6.37427 21.737 -2.53453 -166.505 25.9297 -172.543 -176.144 66.2878 -142.764 -0.541173 -19.3814 -27.5006 -96.3603 35.8147 -155.959 -11.1768 -0.8101 3.28344 -6.75918 0.674372 -10.0751 -0.122371 7.65019 15.705 -89.1758 -18.9036 156.833 -13.5057 22.7292 10.7742 11.1928 0.366725 3.60662 -9.03798 -0.483832 88.3589 -4.67634 63.5433 3.47315 4.73407 1.25575 -0.644489 -13.8913 -33.2456 0.695623 -11.4947 -7.63845 74.9941 6.32968 64.6333 3.42934 -6.29868 -2.59125 0.977025 -5.29902 -23.4766 -10.9615 
-9.69829 95.6777 -8.2019 7.97074 -58.4627 -78.3887 -70.1915 0 88.8779 157.731 44.9812 -67.2398 6.09627 21.4737 -2.40411 -168.531 25.6087 -172.906 -176.453 66.151 -144.15 -0.476548 -18.5969 -28.3254 -93.508 34.2913 -153.091 -12.1417 -1.80788 -0.341725 -6.82788 0.634348 -9.24457 -0.28644 6.82784 18.8007 -81.5996 -11.4647 154.396 -14.1832 28.1421 17.8668 9.27479 0.259355 3.05987 -11.5671 -0.888565 87.9748 -4.0255 60.7727 2.71251 4.81862 1.18686 -0.657647 -13.0665 -31.7053 1.27238 -14.1446 -7.07726 74.9565 5.24547 61.6456 3.51136 -6.25091 -2.42385 0.969743 -5.02265 -22.6936 -10.4794 
-9.71081 96.8938 -7.57809 8.78833 -59.4218 -77.3154 -70.1915 0 88.8779 156.407 46.8795 -65.689 5.48479 21.2896 -1.93435 -169.303 25.3462 -173.836 -173.888 66.1103 -147.383 -0.367479 -17.5674 -29.3439 -86.6058 27.972 -151.893 -12.7623 -9.88416 -6.02529 -5.6332 0.51166 -9.09336 -0.495951 6.56408 22.2722 -73.4239 -3.46878 150.65 -15.6299 34.8451 25.9579 8.24918 0.19767 2.6349 -14.7236 -1.17536 87.1938 -3.44891 57.9478 2.2855 4.956 1.0575 -0.679541 -12.2924 -30.3859 2.18959 -17.3992 -6.33392 74.6243 4.39732 58.4832 3.71473 -6.46968 -2.08497 0.986478 -4.7637 -21.9379 -10.0007 
-9.71365 98.0091 -6.84303 8.99292 -60.3713 -76.7504 -70.1915 0 88.8779 155.23 48.7375 -64.2062 4.72571 21.3423 -1.58371 -170.85 24.841 -174.077 -172.904 65.8044 -150.199 -0.251485 -16.6066 -30.3194 -76.0106 17.7839 -151.103 -13.4116 -22.4049 -13.9471 -4.21334 0.369606 -8.84498 -0.611808 5.76672 25.7326 -69.4328 -2.56863 147.348 -15.7786 35.1417 29.7613 5.84451 0.161796 3.15472 -17.6295 -0.970589 86.6217 -2.97054 55.4771 2.33128 4.65151 0.720432 -0.650484 -11.5664 -28.6384 2.11384 -20.5366 -5.03178 74.7374 3.66147 55.2797 3.48414 -6.48893 -1.74834 0.983635 -4.52767 -21.2251 -9.56898 
